<svg width="148" height="28" viewBox="0 0 148 28" fill="none" xmlns="http://www.w3.org/2000/svg">
  <defs>
    <linearGradient id="gl" x1="2" y1="1" x2="26" y2="27" gradientUnits="userSpaceOnUse">
      <stop offset="0" stop-color="#8B5CF6"/>
      <stop offset="0.5" stop-color="#6366F1"/>
      <stop offset="1" stop-color="#06B6D4"/>
    </linearGradient>
  </defs>
  <!-- Crucible shape icon -->
  <path d="M5 3H23C23 3 22.1 9.8 19.1 14.8L15.1 23C14.3 24.7 12.8 25.7 11.1 25.7H16.9C15.2 25.7 13.7 24.7 12.9 23L8.9 14.8C5.9 9.8 5 3 5 3Z" fill="url(#gl)"/>
  <path d="M7.5 6.5H20.5C20.5 6.5 19.8 11.2 17.5 15.2L14.5 20.8C14 21.8 13.1 22.4 12.2 22.4H15.8C14.9 22.4 14 21.8 13.5 20.8L10.5 15.2C8.2 11.2 7.5 6.5 7.5 6.5Z" fill="#000000" fill-opacity="0.15"/>
  <!-- Horizontal lines inside -->
  <rect x="9" y="9" width="5.5" height="1" rx="0.5" fill="white" fill-opacity="0.9"/>
  <rect x="9" y="11.5" width="8" height="1" rx="0.5" fill="white" fill-opacity="0.75"/>
  <rect x="9" y="14" width="4" height="1" rx="0.5" fill="white" fill-opacity="0.6"/>
  <!-- Text: Crucible -->
  <text x="32" y="19" font-family="system-ui, -apple-system, sans-serif" font-size="14" font-weight="600" fill="#111111" letter-spacing="-0.3">Crucible</text>
  <!-- Text: UI -->
  <text x="104" y="19" font-family="system-ui, -apple-system, sans-serif" font-size="14" font-weight="400" fill="#8B5CF6" letter-spacing="-0.3">UI</text>
</svg>
